<mxfile host="app.diagrams.net" agent="Mozilla/5.0 (Windows NT 10.0; Win64; x64) AppleWebKit/537.36 (KHTML, like Gecko) Chrome/130.0.0.0 Safari/537.36" version="24.8.3">
  <diagram id="C5RBs43oDa-KdzZeNtuy" name="Page-1">
    <mxGraphModel dx="934" dy="591" grid="1" gridSize="10" guides="1" tooltips="1" connect="1" arrows="1" fold="1" page="1" pageScale="1" pageWidth="827" pageHeight="1169" math="0" shadow="0">
      <root>
        <mxCell id="WIyWlLk6GJQsqaUBKTNV-0" />
        <mxCell id="WIyWlLk6GJQsqaUBKTNV-1" parent="WIyWlLk6GJQsqaUBKTNV-0" />
        <mxCell id="2CQglI4DIpkHZctTG4uH-2" value="" style="edgeStyle=none;curved=1;rounded=0;orthogonalLoop=1;jettySize=auto;html=1;fontSize=12;startSize=8;endSize=8;" edge="1" parent="WIyWlLk6GJQsqaUBKTNV-1" source="2CQglI4DIpkHZctTG4uH-0" target="2CQglI4DIpkHZctTG4uH-1">
          <mxGeometry relative="1" as="geometry" />
        </mxCell>
        <mxCell id="2CQglI4DIpkHZctTG4uH-0" value="Start" style="ellipse;whiteSpace=wrap;html=1;" vertex="1" parent="WIyWlLk6GJQsqaUBKTNV-1">
          <mxGeometry x="340" y="20" width="120" height="80" as="geometry" />
        </mxCell>
        <mxCell id="2CQglI4DIpkHZctTG4uH-4" value="" style="edgeStyle=none;curved=1;rounded=0;orthogonalLoop=1;jettySize=auto;html=1;fontSize=12;startSize=8;endSize=8;" edge="1" parent="WIyWlLk6GJQsqaUBKTNV-1" source="2CQglI4DIpkHZctTG4uH-1" target="2CQglI4DIpkHZctTG4uH-3">
          <mxGeometry relative="1" as="geometry" />
        </mxCell>
        <mxCell id="2CQglI4DIpkHZctTG4uH-1" value="input values to M and H" style="shape=parallelogram;perimeter=parallelogramPerimeter;whiteSpace=wrap;html=1;fixedSize=1;" vertex="1" parent="WIyWlLk6GJQsqaUBKTNV-1">
          <mxGeometry x="300" y="120" width="200" height="60" as="geometry" />
        </mxCell>
        <mxCell id="2CQglI4DIpkHZctTG4uH-8" style="edgeStyle=none;curved=1;rounded=0;orthogonalLoop=1;jettySize=auto;html=1;exitX=0.5;exitY=1;exitDx=0;exitDy=0;entryX=0.5;entryY=0;entryDx=0;entryDy=0;fontSize=12;startSize=8;endSize=8;" edge="1" parent="WIyWlLk6GJQsqaUBKTNV-1" source="2CQglI4DIpkHZctTG4uH-3" target="2CQglI4DIpkHZctTG4uH-7">
          <mxGeometry relative="1" as="geometry" />
        </mxCell>
        <mxCell id="2CQglI4DIpkHZctTG4uH-3" value="init counter" style="rounded=1;whiteSpace=wrap;html=1;" vertex="1" parent="WIyWlLk6GJQsqaUBKTNV-1">
          <mxGeometry x="340" y="200" width="120" height="60" as="geometry" />
        </mxCell>
        <mxCell id="2CQglI4DIpkHZctTG4uH-10" value="" style="edgeStyle=none;curved=1;rounded=0;orthogonalLoop=1;jettySize=auto;html=1;fontSize=12;startSize=8;endSize=8;" edge="1" parent="WIyWlLk6GJQsqaUBKTNV-1" source="2CQglI4DIpkHZctTG4uH-7" target="2CQglI4DIpkHZctTG4uH-9">
          <mxGeometry relative="1" as="geometry" />
        </mxCell>
        <mxCell id="2CQglI4DIpkHZctTG4uH-20" value="" style="edgeStyle=none;curved=1;rounded=0;orthogonalLoop=1;jettySize=auto;html=1;fontSize=12;startSize=8;endSize=8;" edge="1" parent="WIyWlLk6GJQsqaUBKTNV-1" source="2CQglI4DIpkHZctTG4uH-7" target="2CQglI4DIpkHZctTG4uH-19">
          <mxGeometry relative="1" as="geometry" />
        </mxCell>
        <mxCell id="2CQglI4DIpkHZctTG4uH-7" value="i &amp;lt; n" style="rhombus;whiteSpace=wrap;html=1;" vertex="1" parent="WIyWlLk6GJQsqaUBKTNV-1">
          <mxGeometry x="360" y="280" width="80" height="80" as="geometry" />
        </mxCell>
        <mxCell id="2CQglI4DIpkHZctTG4uH-13" value="" style="edgeStyle=none;curved=1;rounded=0;orthogonalLoop=1;jettySize=auto;html=1;fontSize=12;startSize=8;endSize=8;" edge="1" parent="WIyWlLk6GJQsqaUBKTNV-1" source="2CQglI4DIpkHZctTG4uH-9" target="2CQglI4DIpkHZctTG4uH-12">
          <mxGeometry relative="1" as="geometry" />
        </mxCell>
        <mxCell id="2CQglI4DIpkHZctTG4uH-15" value="" style="edgeStyle=none;curved=1;rounded=0;orthogonalLoop=1;jettySize=auto;html=1;fontSize=12;startSize=8;endSize=8;" edge="1" parent="WIyWlLk6GJQsqaUBKTNV-1" source="2CQglI4DIpkHZctTG4uH-9" target="2CQglI4DIpkHZctTG4uH-14">
          <mxGeometry relative="1" as="geometry" />
        </mxCell>
        <mxCell id="2CQglI4DIpkHZctTG4uH-9" value="if res[0] == 1, res[1] == 1,&lt;div&gt;&amp;nbsp;res[2] == 1, M &amp;gt; 0, H &amp;gt; 0&lt;/div&gt;" style="rhombus;whiteSpace=wrap;html=1;" vertex="1" parent="WIyWlLk6GJQsqaUBKTNV-1">
          <mxGeometry x="140" y="230" width="180" height="180" as="geometry" />
        </mxCell>
        <mxCell id="2CQglI4DIpkHZctTG4uH-16" style="edgeStyle=none;curved=1;rounded=0;orthogonalLoop=1;jettySize=auto;html=1;fontSize=12;startSize=8;endSize=8;" edge="1" parent="WIyWlLk6GJQsqaUBKTNV-1" source="2CQglI4DIpkHZctTG4uH-12">
          <mxGeometry relative="1" as="geometry">
            <mxPoint x="60" y="620" as="targetPoint" />
          </mxGeometry>
        </mxCell>
        <mxCell id="2CQglI4DIpkHZctTG4uH-12" value="output &quot;NO&quot;" style="shape=parallelogram;perimeter=parallelogramPerimeter;whiteSpace=wrap;html=1;fixedSize=1;" vertex="1" parent="WIyWlLk6GJQsqaUBKTNV-1">
          <mxGeometry y="290" width="120" height="60" as="geometry" />
        </mxCell>
        <mxCell id="2CQglI4DIpkHZctTG4uH-17" style="edgeStyle=none;curved=1;rounded=0;orthogonalLoop=1;jettySize=auto;html=1;fontSize=12;startSize=8;endSize=8;" edge="1" parent="WIyWlLk6GJQsqaUBKTNV-1" source="2CQglI4DIpkHZctTG4uH-14">
          <mxGeometry relative="1" as="geometry">
            <mxPoint x="60" y="470" as="targetPoint" />
          </mxGeometry>
        </mxCell>
        <mxCell id="2CQglI4DIpkHZctTG4uH-14" value="output &quot;YES&quot;" style="shape=parallelogram;perimeter=parallelogramPerimeter;whiteSpace=wrap;html=1;fixedSize=1;" vertex="1" parent="WIyWlLk6GJQsqaUBKTNV-1">
          <mxGeometry x="170" y="440" width="120" height="60" as="geometry" />
        </mxCell>
        <mxCell id="2CQglI4DIpkHZctTG4uH-18" value="Finish" style="ellipse;whiteSpace=wrap;html=1;" vertex="1" parent="WIyWlLk6GJQsqaUBKTNV-1">
          <mxGeometry x="5" y="630" width="110" height="80" as="geometry" />
        </mxCell>
        <mxCell id="2CQglI4DIpkHZctTG4uH-22" value="" style="edgeStyle=none;curved=1;rounded=0;orthogonalLoop=1;jettySize=auto;html=1;fontSize=12;startSize=8;endSize=8;" edge="1" parent="WIyWlLk6GJQsqaUBKTNV-1" source="2CQglI4DIpkHZctTG4uH-19" target="2CQglI4DIpkHZctTG4uH-21">
          <mxGeometry relative="1" as="geometry" />
        </mxCell>
        <mxCell id="2CQglI4DIpkHZctTG4uH-19" value="input h[i] and m[i]" style="shape=parallelogram;perimeter=parallelogramPerimeter;whiteSpace=wrap;html=1;fixedSize=1;" vertex="1" parent="WIyWlLk6GJQsqaUBKTNV-1">
          <mxGeometry x="340" y="380" width="120" height="60" as="geometry" />
        </mxCell>
        <mxCell id="2CQglI4DIpkHZctTG4uH-24" value="" style="edgeStyle=none;curved=1;rounded=0;orthogonalLoop=1;jettySize=auto;html=1;fontSize=12;startSize=8;endSize=8;" edge="1" parent="WIyWlLk6GJQsqaUBKTNV-1" source="2CQglI4DIpkHZctTG4uH-21" target="2CQglI4DIpkHZctTG4uH-23">
          <mxGeometry relative="1" as="geometry" />
        </mxCell>
        <mxCell id="2CQglI4DIpkHZctTG4uH-26" value="" style="edgeStyle=none;curved=1;rounded=0;orthogonalLoop=1;jettySize=auto;html=1;fontSize=12;startSize=8;endSize=8;" edge="1" parent="WIyWlLk6GJQsqaUBKTNV-1" source="2CQglI4DIpkHZctTG4uH-21" target="2CQglI4DIpkHZctTG4uH-25">
          <mxGeometry relative="1" as="geometry" />
        </mxCell>
        <mxCell id="2CQglI4DIpkHZctTG4uH-21" value="if h[i] &amp;gt; 0 and m[i] &amp;gt; 0" style="rhombus;whiteSpace=wrap;html=1;" vertex="1" parent="WIyWlLk6GJQsqaUBKTNV-1">
          <mxGeometry x="340" y="460" width="130" height="110" as="geometry" />
        </mxCell>
        <mxCell id="2CQglI4DIpkHZctTG4uH-29" style="edgeStyle=none;curved=1;rounded=0;orthogonalLoop=1;jettySize=auto;html=1;exitX=0.5;exitY=1;exitDx=0;exitDy=0;entryX=0.5;entryY=0;entryDx=0;entryDy=0;fontSize=12;startSize=8;endSize=8;" edge="1" parent="WIyWlLk6GJQsqaUBKTNV-1" source="2CQglI4DIpkHZctTG4uH-23" target="2CQglI4DIpkHZctTG4uH-27">
          <mxGeometry relative="1" as="geometry" />
        </mxCell>
        <mxCell id="2CQglI4DIpkHZctTG4uH-23" value="res[i] = 0" style="whiteSpace=wrap;html=1;" vertex="1" parent="WIyWlLk6GJQsqaUBKTNV-1">
          <mxGeometry x="510" y="485" width="120" height="60" as="geometry" />
        </mxCell>
        <mxCell id="2CQglI4DIpkHZctTG4uH-28" value="" style="edgeStyle=none;curved=1;rounded=0;orthogonalLoop=1;jettySize=auto;html=1;fontSize=12;startSize=8;endSize=8;" edge="1" parent="WIyWlLk6GJQsqaUBKTNV-1" source="2CQglI4DIpkHZctTG4uH-25" target="2CQglI4DIpkHZctTG4uH-27">
          <mxGeometry relative="1" as="geometry" />
        </mxCell>
        <mxCell id="2CQglI4DIpkHZctTG4uH-25" value="res[i] = 1" style="whiteSpace=wrap;html=1;" vertex="1" parent="WIyWlLk6GJQsqaUBKTNV-1">
          <mxGeometry x="345" y="600" width="120" height="60" as="geometry" />
        </mxCell>
        <mxCell id="2CQglI4DIpkHZctTG4uH-32" value="" style="edgeStyle=none;curved=1;rounded=0;orthogonalLoop=1;jettySize=auto;html=1;fontSize=12;startSize=8;endSize=8;" edge="1" parent="WIyWlLk6GJQsqaUBKTNV-1" source="2CQglI4DIpkHZctTG4uH-27">
          <mxGeometry relative="1" as="geometry">
            <mxPoint x="660" y="630" as="targetPoint" />
          </mxGeometry>
        </mxCell>
        <mxCell id="2CQglI4DIpkHZctTG4uH-27" value="M = M - m[i]&lt;div&gt;H = H - h[i]&lt;/div&gt;" style="whiteSpace=wrap;html=1;" vertex="1" parent="WIyWlLk6GJQsqaUBKTNV-1">
          <mxGeometry x="510" y="600" width="120" height="60" as="geometry" />
        </mxCell>
        <mxCell id="2CQglI4DIpkHZctTG4uH-34" style="edgeStyle=none;curved=1;rounded=0;orthogonalLoop=1;jettySize=auto;html=1;fontSize=12;" edge="1" parent="WIyWlLk6GJQsqaUBKTNV-1" source="2CQglI4DIpkHZctTG4uH-33">
          <mxGeometry relative="1" as="geometry">
            <mxPoint x="720" y="320" as="targetPoint" />
          </mxGeometry>
        </mxCell>
        <mxCell id="2CQglI4DIpkHZctTG4uH-33" value="i++" style="rounded=0;whiteSpace=wrap;html=1;" vertex="1" parent="WIyWlLk6GJQsqaUBKTNV-1">
          <mxGeometry x="670" y="600" width="100" height="60" as="geometry" />
        </mxCell>
        <mxCell id="2CQglI4DIpkHZctTG4uH-38" value="" style="edgeStyle=none;orthogonalLoop=1;jettySize=auto;html=1;rounded=0;fontSize=12;startSize=8;endSize=8;curved=1;exitX=1;exitY=0.5;exitDx=0;exitDy=0;" edge="1" parent="WIyWlLk6GJQsqaUBKTNV-1" source="2CQglI4DIpkHZctTG4uH-7">
          <mxGeometry width="140" relative="1" as="geometry">
            <mxPoint x="510" y="319.5" as="sourcePoint" />
            <mxPoint x="440" y="320" as="targetPoint" />
            <Array as="points">
              <mxPoint x="630" y="320" />
              <mxPoint x="700" y="320" />
              <mxPoint x="740" y="320" />
            </Array>
          </mxGeometry>
        </mxCell>
      </root>
    </mxGraphModel>
  </diagram>
</mxfile>
